<?xml version="1.0" encoding="utf-8"?>
<!-- Generator: Adobe Illustrator 22.0.0, SVG Export Plug-In . SVG Version: 6.00 Build 0)  -->
<svg version="1.1" id="Layer_1" xmlns="http://www.w3.org/2000/svg" xmlns:xlink="http://www.w3.org/1999/xlink" x="0px" y="0px"
	 viewBox="0 0 993.8 993" style="enable-background:new 0 0 993.8 993;" xml:space="preserve">
<style type="text/css">
	.st0{fill:#F7931A;}
	.st1{fill:#FFFFFF;}
</style>
<circle class="st0" cx="496.2" cy="496.6" r="497.1"/>
<path class="st1" d="M712.9,272.4c38.9,0,70.5-31.6,70.5-70.5s-31.6-70.5-70.5-70.5s-70.5,31.6-70.5,70.5c0,13,3.5,25.1,9.6,35.6
	L501.2,403c-17.6-7.6-36.5-12.8-56.3-15.1v-88.8c21.5-9.5,36.5-31.1,36.5-56.1c0-33.9-27.5-61.4-61.4-61.4
	c-33.9,0-61.4,27.5-61.4,61.4c0,25.3,15.3,47.1,37.2,56.4v88.5c-100.3,12.3-178,97.8-178,201.4c0,112.1,90.8,202.9,202.9,202.9
	c58.4,0,111-24.7,148-64.1l43.1,43.1c-2.5,6.6-3.8,13.8-3.8,21.3c0,34,27.6,61.6,61.6,61.6c34,0,61.6-27.6,61.6-61.6
	s-27.6-61.6-61.6-61.6c-7.9,0-15.4,1.5-22.4,4.2l-48.4-48.4c15.8-28.9,24.9-62.1,24.9-97.4c0-65.5-31-123.7-79.1-160.8l145.6-159.9
	C697.4,271.1,705,272.4,712.9,272.4z"/>
</svg>
