<?xml version="1.0" encoding="utf-8"?>
<!-- Generator: Adobe Illustrator 21.1.0, SVG Export Plug-In . SVG Version: 6.00 Build 0)  -->
<svg version="1.1" id="logoEtherparty" xmlns="http://www.w3.org/2000/svg" xmlns:xlink="http://www.w3.org/1999/xlink" x="0px"
	 y="0px" viewBox="0 0 69 43" style="enable-background:new 0 0 69 43;" xml:space="preserve">
<style type="text/css">
	.st0{fill:#368CCB;}
</style>
<title>Etherpary Logo</title>
<path id="logoEtherpartyPath" class="st0" d="M60.4,17c-3.7,0-7.5,0-11.4,0l3.6-8.5h7.7c0.5,0.1,0.8,0.4,0.8,0.8c0,2.4,0,4.7,0,7
	C61.2,16.7,60.9,17,60.4,17z M37.8,17.1l-20.3,0V8.3h20.6L41.2,0C30.9,0,20.5,0,9.9,0C9,0.1,8.6,0.5,8.6,1.4v15.7l-5.2,0l-3,8.3h8.2
	v15.5c0,0,0,1.7,1.7,1.6c0.3,0,1.3,0,2.1,0c3.9,0,12.1,0,12.5,0l3.2-8.2H17.6v-9h17.2L28,42.5h9.1h1l6.9-17.1c0,0,19.9,0.3,21.6,0
	c1.7-0.3,1.8-1.9,1.8-1.9c0-9.7,0-17,0-21.9c0-1.1-0.5-1.6-1.5-1.5H44.6L37.8,17.1z"/>
</svg>
